<?xml version="1.0" standalone="no"?>
<!DOCTYPE svg PUBLIC "-//W3C//DTD SVG 20010904//EN"
 "http://www.w3.org/TR/2001/REC-SVG-20010904/DTD/svg10.dtd">
<svg version="1.0" xmlns="http://www.w3.org/2000/svg"
 width="700.000000pt" height="700.000000pt" viewBox="0 0 700.000000 700.000000"
 preserveAspectRatio="xMidYMid meet">
<metadata>
Created by potrace 1.11, written by Peter Selinger 2001-2013
</metadata>
<g transform="translate(0.000000,700.000000) scale(0.100000,-0.100000)"
fill="#000000" stroke="none">
<path d="M3 6964 c14 -87 83 -176 186 -242 31 -20 126 -69 211 -110 403 -192
520 -269 623 -409 134 -183 139 -459 12 -650 -79 -119 -169 -195 -450 -383
-275 -183 -367 -261 -461 -390 -84 -115 -115 -209 -119 -360 -4 -139 7 -219
41 -325 60 -182 128 -279 314 -445 158 -140 200 -189 200 -232 0 -25 13 -29
98 -30 145 0 134 -4 128 45 -15 129 -79 216 -293 402 -137 119 -207 226 -243
372 -19 78 -28 230 -16 278 23 97 80 188 163 265 80 74 70 67 319 234 244 165
297 206 400 312 122 124 208 291 229 444 9 60 9 210 0 250 -2 13 -7 42 -11 64
-17 117 -103 271 -214 384 -122 123 -272 212 -685 407 -104 49 -184 102 -198
132 -10 22 -14 23 -125 23 l-115 0 6 -36z"/>
<path d="M1699 6765 c-6 -51 17 -137 54 -204 45 -80 144 -173 321 -301 189
-137 267 -204 341 -294 186 -228 236 -583 115 -832 -124 -256 -405 -420 -1030
-599 -410 -118 -518 -154 -651 -219 -107 -52 -195 -124 -236 -193 -27 -46 -53
-138 -46 -160 3 -9 35 -13 113 -13 l108 0 12 35 c32 96 180 164 665 305 411
120 560 172 732 258 342 169 526 371 597 653 21 82 24 114 21 249 -3 198 -27
307 -101 465 -47 99 -155 242 -243 320 -19 16 -39 35 -45 40 -26 24 -109 88
-216 165 -222 161 -285 231 -289 320 -1 12 -20 15 -111 15 -66 0 -110 -4 -111
-10z"/>
<path d="M1809 5530 c-10 -69 -32 -113 -85 -170 -69 -74 -168 -136 -402 -253
-114 -57 -226 -115 -249 -130 -96 -60 -150 -127 -163 -198 l-7 -39 61 -1 c33
-1 85 -2 114 -3 30 -2 56 2 60 9 12 19 103 70 309 173 257 129 328 174 431
274 87 85 152 214 152 304 l0 33 -110 3 c-61 2 -110 1 -111 -2z"/>
<path d="M3386 4837 c-185 -128 -225 -161 -257 -207 -50 -72 -69 -128 -76
-222 -8 -103 19 -185 98 -304 41 -63 55 -90 46 -95 -7 -4 -42 -17 -77 -29
-142 -49 -322 -156 -436 -260 -42 -38 -125 -135 -162 -187 -55 -79 -121 -240
-137 -331 l-6 -40 -1022 -1 c-562 0 -1033 -3 -1046 -5 -109 -23 -189 -75 -244
-159 -46 -68 -66 -139 -63 -218 4 -84 20 -133 65 -199 48 -69 124 -122 220
-150 427 -128 622 -206 924 -369 238 -128 602 -382 783 -546 18 -17 116 -100
163 -140 64 -53 253 -176 341 -222 106 -56 233 -109 351 -146 l101 -33 -41
-27 c-22 -15 -44 -27 -47 -27 -15 0 -156 -113 -213 -170 -118 -118 -214 -281
-252 -427 -11 -45 -23 -129 -26 -201 l-6 -122 1244 2 1244 3 -3 115 c-3 140
-27 239 -87 365 -99 207 -278 380 -507 492 -38 18 -68 35 -68 37 0 2 44 20 98
42 116 45 257 118 367 188 266 169 520 428 674 686 78 132 69 124 126 112 165
-35 358 48 452 195 57 89 75 159 77 291 0 28 4 52 9 52 31 0 148 -72 196 -119
236 -236 141 -629 -178 -743 -50 -18 -85 -21 -346 -23 -313 -3 -346 -7 -426
-56 -100 -62 -153 -160 -153 -285 0 -72 4 -89 33 -148 40 -82 117 -148 201
-173 89 -26 604 -25 750 2 67 12 125 27 155 40 17 8 43 17 58 21 44 10 203
100 269 150 69 54 139 122 194 190 21 27 42 51 45 54 13 12 82 134 108 192 32
70 69 184 77 238 3 19 9 54 14 77 8 47 6 266 -4 328 -4 22 -12 58 -17 80 -6
22 -12 47 -14 55 -7 36 -59 160 -91 219 -111 202 -276 364 -473 465 -90 46
-207 90 -271 101 -19 3 -55 11 -80 16 -25 6 -97 10 -160 10 -133 0 -233 -22
-347 -76 l-72 -33 -298 -1 c-165 0 -303 3 -309 7 -6 4 -16 34 -23 67 -34 163
-126 322 -266 460 -127 125 -304 233 -476 290 l-77 26 50 72 c27 40 59 92 70
117 74 158 49 336 -64 471 -15 17 -431 308 -451 314 -6 2 -111 -65 -231 -148z
m510 -319 c51 -48 68 -135 39 -205 -8 -19 -49 -87 -91 -149 -64 -96 -79 -112
-97 -108 -22 5 -242 8 -262 4 -25 -5 -37 5 -93 88 -122 178 -138 231 -97 319
19 43 38 59 170 149 l148 102 126 -86 c69 -47 140 -98 157 -114z m-101 -692
c17 -2 53 -10 80 -16 28 -6 59 -13 69 -16 42 -8 125 -38 191 -70 114 -54 195
-111 285 -203 69 -70 95 -106 133 -182 26 -52 51 -113 56 -136 l9 -41 -1004 0
c-552 0 -1004 3 -1004 7 0 4 7 32 16 62 84 281 374 510 739 583 44 8 98 17
120 19 51 4 271 -1 310 -7z m2225 -791 c130 -25 229 -63 332 -128 258 -163
419 -451 420 -752 0 -211 -65 -404 -191 -565 -122 -155 -307 -276 -487 -319
-27 -6 -60 -14 -74 -18 -41 -10 -599 -12 -633 -2 -87 24 -104 145 -28 196 23
16 55 18 266 20 132 1 272 4 311 7 232 17 449 171 548 387 43 95 57 155 61
254 11 263 -131 509 -363 632 -31 17 -162 64 -162 58 0 -2 -13 0 -30 5 -26 7
-156 14 -215 11 -19 -1 -20 -8 -19 -182 1 -99 -3 -198 -8 -219 -12 -46 -66
-112 -111 -135 -17 -9 -58 -19 -89 -22 -49 -5 -66 -2 -112 21 -91 45 -128 111
-125 225 8 262 203 484 467 531 46 8 191 5 242 -5z m-808 -115 c-3 -8 -13 -26
-22 -40 -26 -36 -66 -135 -86 -210 -23 -89 -24 -258 0 -325 19 -54 47 -104 82
-148 l23 -27 -47 -80 c-234 -396 -577 -684 -1003 -843 -97 -37 -267 -81 -356
-93 -26 -3 -57 -8 -68 -11 -36 -9 -379 -12 -430 -3 -27 4 -73 10 -102 14 -150
18 -386 94 -558 181 -160 80 -267 154 -452 310 -85 72 -218 178 -296 237 -175
133 -160 121 -180 133 -9 6 -43 29 -77 53 -33 23 -63 42 -66 42 -3 0 -25 14
-49 30 -24 17 -48 30 -54 30 -6 0 -11 5 -11 10 0 6 -5 10 -11 10 -6 0 -23 8
-37 18 -45 31 -250 137 -372 191 -63 29 -124 56 -135 61 -80 37 -313 116 -530
180 -103 30 -145 73 -145 148 0 70 30 114 93 136 24 8 676 11 2464 11 2158 0
2430 -2 2425 -15z m-1392 -2034 c69 -11 95 -17 115 -23 11 -4 22 -7 25 -8 60
-11 270 -106 292 -132 6 -7 15 -13 21 -13 32 0 187 -153 245 -242 54 -82 113
-236 93 -239 -3 -1 -455 -2 -1004 -3 -790 -1 -997 2 -997 11 0 7 10 41 22 75
111 324 461 555 883 585 44 3 81 6 82 7 3 3 188 -12 223 -18z"/>
<path d="M1920 2597 l0 -113 112 0 113 1 1 113 0 112 -113 0 -113 0 0 -113z"/>
<path d="M2370 2597 l0 -113 1130 0 1130 0 0 113 0 113 -1130 0 -1130 0 0
-113z"/>
</g>
</svg>
